<?xml version="1.0"?>
<svg xmlns="http://www.w3.org/2000/svg" viewBox="0 0 16 16">
    <path style="line-height:normal;text-indent:0;text-align:start;text-decoration-line:none;text-decoration-style:solid;text-decoration-color:#000;text-transform:none;block-progression:tb;isolation:auto;mix-blend-mode:normal" d="M 2.5 2 C 1.6774686 2 1 2.6774686 1 3.5 L 1 8.5 C 1 9.3225314 1.6774686 10 2.5 10 L 3.9941406 10 L 3.9941406 12 L 6.6621094 10 L 9.5 10 C 10.322531 10 11 9.3225314 11 8.5 L 11 3.5 C 11 2.6774686 10.322531 2 9.5 2 L 2.5 2 z M 2.5 3 L 9.5 3 C 9.7814686 3 10 3.2185314 10 3.5 L 10 8.5 C 10 8.7814686 9.7814686 9 9.5 9 L 6.328125 9 L 4.9941406 10 L 4.9941406 9 L 2.5 9 C 2.2185314 9 2 8.7814686 2 8.5 L 2 3.5 C 2 3.2185314 2.2185314 3 2.5 3 z M 12 5 L 12 8.5 C 12 9.878 10.878 11 9.5 11 L 8.1855469 11 L 8.1835938 11.003906 C 7.6835938 11.003906 7.2442813 11.003906 6.9882812 11.003906 L 5.2421875 12.314453 C 5.5111875 12.726453 5.973 13 6.5 13 L 7 13 L 9.3378906 13 L 12.005859 15 L 12.005859 13 L 13.5 13 C 14.327 13 15 12.327 15 11.5 L 15 6.5 C 15 5.673 14.327 5 13.5 5 L 12 5 z" font-weight="400" font-family="sans-serif" white-space="normal" overflow="visible"/>
</svg>
