<?xml version="1.0" encoding="UTF-8"?>
<!DOCTYPE svg PUBLIC "-//W3C//DTD SVG 1.1//EN" "http://www.w3.org/Graphics/SVG/1.1/DTD/svg11.dtd">
<!-- Creator: CorelDRAW 2020 (64-Bit) -->
<svg xmlns="http://www.w3.org/2000/svg" xml:space="preserve" width="359.717mm" height="301.545mm" version="1.1" style="shape-rendering:geometricPrecision; text-rendering:geometricPrecision; image-rendering:optimizeQuality; fill-rule:evenodd; clip-rule:evenodd"
viewBox="0 0 21919.58 18374.84"
 xmlns:xlink="http://www.w3.org/1999/xlink"
 xmlns:xodm="http://www.corel.com/coreldraw/odm/2003">
 <defs>
  <style type="text/css">
   <![CDATA[
    .fil0 {fill:black;fill-rule:nonzero}
   ]]>
  </style>
 </defs>
 <g id="Layer_x0020_1">
  <metadata id="CorelCorpID_0Corel-Layer"/>
  <path id="path2991" class="fil0" d="M11599.28 14359.86l5106.64 3766.67c923.69,503.83 1595.46,251.91 1830.58,-856.51l3308.48 -15585.13c335.89,-1360.34 -520.62,-1964.94 -1410.72,-1561.87l-19414.24 7490.27c-1326.75,537.42 -1309.96,1276.37 -235.12,1595.46 853.15,267.15 1717.04,502.12 2559.44,801.44 2995.66,1064.43 2121.22,735.27 5645.64,-1267.28l8320.53 -5244.24c537.42,-335.89 1041.25,-151.15 638.18,218.33 -1851.08,1661.99 -3761.9,3259.78 -5553.25,4985.98 -3988.76,3843.69 -4764.2,2599.62 -796.17,5656.87z"/>
 </g>
</svg>
