<?xml version="1.0" encoding="UTF-8"?>
<!DOCTYPE svg PUBLIC "-//W3C//DTD SVG 1.1//EN" "http://www.w3.org/Graphics/SVG/1.1/DTD/svg11.dtd">
<!-- Creator: CorelDRAW 2020 (64-Bit) -->
<svg xmlns="http://www.w3.org/2000/svg" xml:space="preserve" width="21.9998mm" height="22mm" version="1.1" style="shape-rendering:geometricPrecision; text-rendering:geometricPrecision; image-rendering:optimizeQuality; fill-rule:evenodd; clip-rule:evenodd"
viewBox="0 0 2949.55 2949.57"
 xmlns:xlink="http://www.w3.org/1999/xlink"
 xmlns:xodm="http://www.corel.com/coreldraw/odm/2003">
 <defs>
  <style type="text/css">
   <![CDATA[
    .fil0 {fill:#32373C}
   ]]>
  </style>
 </defs>
 <g id="Layer_x0020_1">
  <metadata id="CorelCorpID_0Corel-Layer"/>
  <path class="fil0" d="M1474.76 201.11c703.43,0 1273.68,570.25 1273.68,1273.68 0,703.43 -570.25,1273.67 -1273.68,1273.67 -703.43,0 -1273.67,-570.23 -1273.67,-1273.67 0,-141.11 22.99,-276.84 65.36,-403.72 131.31,360.06 263.77,724.5 395.16,1085.08l56.04 0 265.58 -795.81 0 0 286.95 795.81 62.37 0c95.19,-293.88 186.86,-597.73 285.13,-894.5 97.66,278.37 492.95,282.5 633.66,467.36 178.81,235.19 -162.83,474.84 -453.64,226.86 -81.11,-69.17 -133.2,-159.4 -156.17,-270.7l-66.65 0 0 470.81 66.65 0c40.1,-174.45 169.6,-54.04 283.66,-19.28 97.94,29.87 214.74,23.93 311.22,-8.53 249.78,-84.1 389.64,-360.79 204.39,-578.91 -55.12,-64.92 -126.01,-119.42 -213.59,-161.6 -122.41,-58.98 -489.41,-154.97 -489.41,-323.14 0,-174.78 292.97,-204.62 419.39,-140.17 100,50.95 209.19,226.45 181.35,335.02l126.64 0c23.3,-80.59 35.58,-169 35.58,-247.79 0,-100.23 -43.8,-271.79 -166.96,-271.79 -64.46,0 -112.58,48.98 -123.82,107.42 -66.02,-33.99 -130.84,-48.05 -214.76,-48.05 -111.79,0 -181.56,43.49 -300.91,43.49 -85.22,0 -173.13,-10.39 -173.13,-10.39 -43.88,-2.57 -49.04,61.97 -5.16,67.16 0,0 73.04,5.13 122.11,7.72 -86.61,289.55 -175.1,584.06 -262.55,875.67l-294.41 -875.65c49.04,-2.57 93.21,-7.75 93.21,-7.75 43.92,-5.19 38.76,-69.73 -5.16,-67.16 0,0 -131.94,10.39 -217.16,10.39 -80.03,0 -214.5,-10.39 -214.5,-10.39 -43.95,-2.57 -49.1,64.57 -5.18,67.16 0,0 41.54,5.18 85.46,7.75l126.89 347.7 -178.32 534.66c-98.85,-294.06 -197.82,-588.56 -296.42,-882.37 20.14,-1.1 92.46,-3.83 107.3,-12.2 26.48,-14.88 19.98,-59.94 -13.54,-62.61 -25.63,-1.77 -64.6,4.06 -90.67,5.58l-0.15 0c-34.9,2.02 -69.34,3.63 -103.91,4.28 219.61,-383.04 632.52,-641.1 1105.71,-641.1zm0.01 -112.62c769.84,0 1386.29,625.26 1386.29,1386.3 0,757.62 -612.88,1386.3 -1386.29,1386.3 -759.29,0 -1386.29,-614.21 -1386.29,-1386.3 0,-761.04 616.46,-1386.3 1386.29,-1386.3zm0 -88.49l0 0c-814.5,0 -1474.77,660.29 -1474.77,1474.79 0,814.51 660.28,1474.79 1474.77,1474.79 814.5,0 1474.77,-660.28 1474.77,-1474.79 0,-814.5 -660.28,-1474.79 -1474.77,-1474.79z"/>
 </g>
</svg>
